<svg xmlns="http://www.w3.org/2000/svg" xmlns:xlink="http://www.w3.org/1999/xlink" width="600" height="440" viewBox="0 0 600 440">
  <defs>
    <clipPath id="clip-Destaques">
      <rect width="600" height="440"/>
    </clipPath>
  </defs>
  <g id="Destaques" clip-path="url(#clip-Destaques)">
    <rect width="600" height="440" fill="#f0f0f0"/>
    <g id="Group_755" data-name="Group 755" transform="translate(242 176)">
      <path id="Path_260" data-name="Path 260" d="M12.76,15A8.825,8.825,0,0,0,4,23.76V93.838a8.825,8.825,0,0,0,8.76,8.76h97.609a8.825,8.825,0,0,0,8.76-8.76V23.76a8.825,8.825,0,0,0-8.76-8.76Zm0,7.508h97.609a1.175,1.175,0,0,1,1.251,1.251V73.5L92.692,58.368a3.861,3.861,0,0,0-4.457-.2L70.48,70.374,46.391,50.86a3.689,3.689,0,0,0-4.5-.156L11.508,71.664V23.76A1.175,1.175,0,0,1,12.76,22.508ZM70.324,32.519A11.263,11.263,0,1,0,81.586,43.782,11.32,11.32,0,0,0,70.324,32.519Zm0,7.508a3.754,3.754,0,1,1-3.754,3.754A3.7,3.7,0,0,1,70.324,40.028ZM43.888,58.486,67.977,77.961a3.863,3.863,0,0,0,4.459.2l17.715-12.2L111.62,83.123V93.838a1.175,1.175,0,0,1-1.251,1.251H12.76a1.175,1.175,0,0,1-1.251-1.251V80.816Z" transform="translate(-4 -15)" fill="#e2e2e2"/>
    </g>
  </g>
</svg>
